<?xml version="1.0" encoding="UTF-8" standalone="no"?>
<!DOCTYPE svg PUBLIC "-//W3C//DTD SVG 1.1//EN" "http://www.w3.org/Graphics/SVG/1.1/DTD/svg11.dtd">
<svg width="100%" height="100%" viewBox="0 0 280 402" version="1.1" xmlns="http://www.w3.org/2000/svg" xmlns:xlink="http://www.w3.org/1999/xlink" xml:space="preserve" xmlns:serif="http://www.serif.com/" style="fill-rule:evenodd;clip-rule:evenodd;stroke-linejoin:round;stroke-miterlimit:2;">
    <g transform="matrix(1,0,0,1,-4958.14,-1568.87)">
        <g id="Artboard2" transform="matrix(1.0062,0,0,1.0051,-32.456,-10.3797)">
            <rect x="4959.86" y="1571.24" width="278.276" height="399.96" style="fill:none;"/>
            <g transform="matrix(0.998419,0,0,0.999507,3501.53,222.389)">
                <path d="M1725.58,1354.57C1730.52,1354.57 1734.52,1358.58 1734.52,1363.52L1734.52,1665.87C1734.52,1669.12 1732.76,1672.11 1729.93,1673.69L1604.35,1743.61C1601.65,1745.11 1598.36,1745.11 1595.65,1743.61L1470.08,1673.69C1467.24,1672.11 1465.48,1669.12 1465.48,1665.87L1465.48,1363.52C1465.48,1358.58 1469.49,1354.57 1474.43,1354.57L1725.58,1354.57Z"/>
            </g>
            <g transform="matrix(2.5816,0,0,2.58441,3923.27,-3098.64)">
                <path d="M411.509,1825.02L411.509,1816.69L412.446,1816.69L412.446,1820.38L419.097,1820.38L419.097,1816.69L420.045,1816.69L420.045,1825.02L419.097,1825.02L419.097,1821.33L412.446,1821.33L412.446,1825.02L411.509,1825.02Z" style="fill:white;fill-rule:nonzero;"/>
            </g>
            <g transform="matrix(2.5816,0,0,2.58441,3923.27,-3098.64)">
                <path d="M422.694,1825.02C422.439,1825.02 422.204,1824.96 421.988,1824.83C421.78,1824.7 421.61,1824.53 421.479,1824.33C421.356,1824.11 421.294,1823.87 421.294,1823.62L421.294,1821.19L427.17,1821.19L427.17,1819.71C427.17,1819.59 427.124,1819.48 427.031,1819.4C426.946,1819.31 426.842,1819.26 426.719,1819.26L421.294,1819.26L421.294,1818.31L426.719,1818.31C426.981,1818.31 427.216,1818.38 427.424,1818.51C427.64,1818.63 427.81,1818.8 427.933,1819.02C428.064,1819.22 428.13,1819.46 428.13,1819.71L428.13,1825.02L422.694,1825.02ZM422.694,1824.07L427.17,1824.07L427.17,1822.14L422.243,1822.14L422.243,1823.62C422.243,1823.74 422.285,1823.85 422.37,1823.94C422.462,1824.03 422.57,1824.07 422.694,1824.07Z" style="fill:white;fill-rule:nonzero;"/>
            </g>
            <g transform="matrix(2.5816,0,0,2.58441,3923.27,-3098.64)">
                <path d="M430.593,1825.02C430.339,1825.02 430.104,1824.96 429.888,1824.83C429.68,1824.7 429.51,1824.53 429.379,1824.33C429.256,1824.11 429.194,1823.87 429.194,1823.62L429.194,1819.71C429.194,1819.46 429.256,1819.22 429.379,1819.02C429.51,1818.8 429.68,1818.63 429.888,1818.51C430.104,1818.38 430.339,1818.31 430.593,1818.31L436.006,1818.31L436.006,1819.26L430.593,1819.26C430.47,1819.26 430.362,1819.31 430.269,1819.4C430.185,1819.48 430.142,1819.59 430.142,1819.71L430.142,1823.62C430.142,1823.74 430.185,1823.85 430.269,1823.94C430.362,1824.03 430.47,1824.07 430.593,1824.07L436.029,1824.07L436.029,1825.02L430.593,1825.02Z" style="fill:white;fill-rule:nonzero;"/>
            </g>
            <g transform="matrix(2.5816,0,0,2.58441,3923.27,-3098.64)">
                <path d="M437.036,1825.02L437.036,1816.11L437.984,1816.11L437.984,1821.19L439.835,1821.19L442.472,1818.31L443.721,1818.31L443.721,1818.32L440.679,1821.66L443.709,1825.01L443.709,1825.02L442.472,1825.02L439.835,1822.14L437.984,1822.14L437.984,1825.02L437.036,1825.02Z" style="fill:white;fill-rule:nonzero;"/>
            </g>
            <g transform="matrix(2.5816,0,0,2.58441,3923.27,-3098.64)">
                <path d="M445.884,1825.02C445.629,1825.02 445.394,1824.96 445.178,1824.83C444.97,1824.7 444.8,1824.53 444.669,1824.33C444.546,1824.11 444.484,1823.87 444.484,1823.62L444.484,1821.19L450.36,1821.19L450.36,1819.71C450.36,1819.59 450.313,1819.48 450.221,1819.4C450.136,1819.31 450.032,1819.26 449.909,1819.26L444.484,1819.26L444.484,1818.31L449.909,1818.31C450.171,1818.31 450.406,1818.38 450.614,1818.51C450.83,1818.63 451,1818.8 451.123,1819.02C451.254,1819.22 451.32,1819.46 451.32,1819.71L451.32,1825.02L445.884,1825.02ZM445.884,1824.07L450.36,1824.07L450.36,1822.14L445.433,1822.14L445.433,1823.62C445.433,1823.74 445.475,1823.85 445.56,1823.94C445.652,1824.03 445.76,1824.07 445.884,1824.07Z" style="fill:white;fill-rule:nonzero;"/>
            </g>
            <g transform="matrix(2.5816,0,0,2.58441,3923.27,-3098.64)">
                <path d="M453.587,1825.02C453.325,1825.02 453.085,1824.96 452.87,1824.83C452.661,1824.7 452.492,1824.53 452.361,1824.33C452.237,1824.11 452.176,1823.87 452.176,1823.62L452.176,1819.71C452.176,1819.46 452.237,1819.22 452.361,1819.02C452.492,1818.8 452.661,1818.63 452.87,1818.51C453.085,1818.38 453.325,1818.31 453.587,1818.31L458.063,1818.31L458.063,1816.11L459.011,1816.11L459.011,1825.02L453.587,1825.02ZM453.587,1824.07L457.612,1824.07C457.735,1824.07 457.839,1824.03 457.924,1823.94C458.016,1823.85 458.063,1823.74 458.063,1823.62L458.063,1819.71C458.063,1819.59 458.016,1819.48 457.924,1819.4C457.839,1819.31 457.735,1819.26 457.612,1819.26L453.587,1819.26C453.463,1819.26 453.355,1819.31 453.263,1819.4C453.178,1819.48 453.136,1819.59 453.136,1819.71L453.136,1823.62C453.136,1823.74 453.178,1823.85 453.263,1823.94C453.355,1824.03 453.463,1824.07 453.587,1824.07Z" style="fill:white;fill-rule:nonzero;"/>
            </g>
            <g transform="matrix(2.5816,0,0,2.58441,3923.27,-3098.64)">
                <path d="M461.382,1825.02C461.128,1825.02 460.893,1824.96 460.677,1824.83C460.468,1824.7 460.299,1824.53 460.168,1824.33C460.044,1824.11 459.983,1823.87 459.983,1823.62L459.983,1819.71C459.983,1819.46 460.044,1819.22 460.168,1819.02C460.299,1818.8 460.468,1818.63 460.677,1818.51C460.893,1818.38 461.128,1818.31 461.382,1818.31L465.407,1818.31C465.669,1818.31 465.905,1818.38 466.113,1818.51C466.329,1818.63 466.498,1818.8 466.622,1819.02C466.753,1819.22 466.818,1819.46 466.818,1819.71L466.818,1822.14L460.931,1822.14L460.931,1823.62C460.931,1823.74 460.974,1823.85 461.058,1823.94C461.151,1824.03 461.259,1824.07 461.382,1824.07L466.818,1824.07L466.818,1825.02L461.382,1825.02ZM460.931,1821.19L465.858,1821.19L465.858,1819.71C465.858,1819.59 465.812,1819.48 465.719,1819.4C465.635,1819.31 465.531,1819.26 465.407,1819.26L461.382,1819.26C461.259,1819.26 461.151,1819.31 461.058,1819.4C460.974,1819.48 460.931,1819.59 460.931,1819.71L460.931,1821.19Z" style="fill:white;fill-rule:nonzero;"/>
            </g>
            <g transform="matrix(2.5816,0,0,2.58441,3923.27,-3098.64)">
                <path d="M468.021,1825.02L468.021,1818.31L476.881,1818.31C477.143,1818.31 477.378,1818.38 477.586,1818.51C477.802,1818.63 477.972,1818.8 478.095,1819.02C478.219,1819.22 478.28,1819.46 478.28,1819.71L478.28,1825.02L477.343,1825.02L477.343,1819.71C477.343,1819.59 477.297,1819.48 477.205,1819.4C477.112,1819.31 477.004,1819.26 476.881,1819.26L474.093,1819.26C473.97,1819.26 473.862,1819.31 473.769,1819.4C473.685,1819.48 473.642,1819.59 473.642,1819.71L473.642,1825.02L472.682,1825.02L472.682,1819.71C472.682,1819.59 472.636,1819.48 472.543,1819.4C472.459,1819.31 472.355,1819.26 472.231,1819.26L469.432,1819.26C469.309,1819.26 469.201,1819.31 469.108,1819.4C469.024,1819.48 468.981,1819.59 468.981,1819.71L468.981,1825.02L468.021,1825.02Z" style="fill:white;fill-rule:nonzero;"/>
            </g>
            <g transform="matrix(2.5816,0,0,2.58441,3923.27,-3098.64)">
                <rect x="479.367" y="1816.69" width="1.527" height="8.328" style="fill:white;fill-rule:nonzero;"/>
            </g>
            <g transform="matrix(2.5816,0,0,2.58441,3923.27,-3098.64)">
                <path d="M488.69,1822.8L488.69,1816.69L490.228,1816.69L490.228,1825.02L488.562,1825.02L483.427,1818.91L483.427,1825.02L481.9,1825.02L481.9,1816.69L483.566,1816.69L488.69,1822.8Z" style="fill:white;fill-rule:nonzero;"/>
            </g>
            <g transform="matrix(2.5816,0,0,2.58441,3923.27,-3098.64)">
                <path d="M491.107,1816.69L499.435,1816.69L499.435,1818.22L496.046,1818.22L496.046,1825.02L494.507,1825.02L494.507,1818.22L491.107,1818.22L491.107,1816.69Z" style="fill:white;fill-rule:nonzero;"/>
            </g>
            <g transform="matrix(0.549095,0,0,0.486074,4957.62,1601.31)">
                <g transform="matrix(0.895105,0,0,1.01226,-3446.03,-1947.81)">
                    <path d="M4188.45,2151.57C4191.48,2153.3 4195.22,2153.25 4198.2,2151.43C4201.19,2149.62 4202.96,2146.33 4202.83,2142.84C4201.22,2095.14 4154.93,2038.7 4108.51,2005.65C4107.35,2004.85 4105.77,2005.05 4104.83,2006.11C4103.9,2007.17 4103.9,2008.76 4104.85,2009.81C4118.22,2024.9 4138.69,2049.02 4156.66,2074.52C4157.44,2075.66 4157.27,2077.2 4156.26,2078.14C4155.25,2079.08 4153.7,2079.15 4152.62,2078.29C4143.46,2070.93 4131.16,2061.46 4118.79,2053.23C4117.61,2052.5 4116.08,2052.75 4115.19,2053.81C4114.3,2054.87 4114.32,2056.42 4115.24,2057.46C4126.34,2069.13 4140.65,2085.18 4148.35,2097.79C4148.88,2098.82 4148.7,2100.07 4147.92,2100.93C4147.14,2101.78 4145.91,2102.06 4144.83,2101.63C4139.76,2099.59 4132.65,2096.89 4125.62,2094.85C4124.37,2094.54 4123.07,2095.11 4122.48,2096.25C4121.87,2097.38 4122.12,2098.78 4123.08,2099.63C4136.66,2111.83 4165.11,2136.57 4188.45,2151.57Z" style="fill:rgb(255,193,40);"/>
                </g>
                <g transform="matrix(0.895105,0,0,1.01226,-3408.92,-1966.64)">
                    <path d="M4112.19,2149.02L4124.41,2142.13C4126.66,2140.87 4129.41,2140.89 4131.64,2142.18L4197.72,2180.53L4181.52,2189.65L4169.33,2182.79C4167.63,2180.88 4165.79,2179.09 4163.81,2177.45C4154.87,2170.05 4139.69,2159.47 4118.26,2151.21C4117.1,2150.76 4115.91,2150.32 4114.71,2149.88C4114.71,2149.88 4114.69,2149.89 4114.66,2149.89C4113.89,2149.62 4113.05,2149.32 4112.19,2149.02Z" style="fill:rgb(0,81,106);"/>
                </g>
                <g transform="matrix(-1.21625,0.774409,-1.99944e-18,2.60665,5720.13,-9352.3)">
                    <path d="M4370.83,2430.93C4372.21,2430.93 4373.06,2431.45 4373.06,2432.28C4373.06,2437.02 4373.06,2452.87 4373.06,2457.93C4373.06,2458.26 4372.73,2458.66 4372.2,2458.98C4371.67,2459.3 4371.01,2459.5 4370.47,2459.5C4366.69,2459.5 4359.72,2459.5 4356.15,2459.5C4354.77,2459.5 4353.92,2458.98 4353.92,2458.15C4353.92,2453.41 4353.92,2437.56 4353.92,2432.5C4353.92,2432.17 4354.24,2431.78 4354.78,2431.45C4355.31,2431.13 4355.97,2430.93 4356.51,2430.93L4370.83,2430.93Z" style="fill:rgb(135,191,255);"/>
                </g>
                <g transform="matrix(-1.01593,0.646857,4.06517e-17,1.18786,4824.03,-5485.06)">
                    <path d="M4370.39,2430.93C4372.04,2430.93 4373.06,2432.07 4373.06,2433.9C4373.06,2439.23 4373.06,2450.4 4373.06,2456.06C4373.06,2456.77 4372.67,2457.65 4372.03,2458.36C4371.39,2459.06 4370.61,2459.5 4369.96,2459.5C4366.25,2459.5 4360.1,2459.5 4356.59,2459.5C4354.94,2459.5 4353.92,2458.36 4353.92,2456.53C4353.92,2451.2 4353.92,2440.03 4353.92,2434.37C4353.92,2433.66 4354.31,2432.78 4354.95,2432.08C4355.59,2431.37 4356.37,2430.93 4357.02,2430.93C4360.73,2430.93 4366.88,2430.93 4370.39,2430.93Z" style="fill:rgb(0,81,106);"/>
                </g>
                <g transform="matrix(-1.01593,0.646857,3.50943e-17,1.31779,4765.92,-5869.62)">
                    <path d="M4370.39,2430.93C4372.04,2430.93 4373.06,2431.95 4373.06,2433.61C4373.06,2438.91 4373.06,2450.76 4373.06,2456.4C4373.06,2457.04 4372.67,2457.83 4372.03,2458.47C4371.39,2459.11 4370.61,2459.5 4369.96,2459.5C4366.25,2459.5 4360.1,2459.5 4356.59,2459.5C4354.94,2459.5 4353.92,2458.48 4353.92,2456.83C4353.92,2451.52 4353.92,2439.67 4353.92,2434.03C4353.92,2433.39 4354.31,2432.6 4354.95,2431.96C4355.59,2431.33 4356.37,2430.93 4357.02,2430.93C4360.73,2430.93 4366.88,2430.93 4370.39,2430.93Z" style="fill:rgb(135,191,255);"/>
                </g>
                <g transform="matrix(-0.800189,0.509494,3.03128e-17,0.975505,3915.7,-4406.13)">
                    <path d="M4369.67,2430.93C4371.76,2430.93 4373.06,2432.31 4373.06,2434.54C4373.06,2439.84 4373.06,2449.7 4373.06,2455.31C4373.06,2456.18 4372.56,2457.24 4371.75,2458.11C4370.94,2458.97 4369.94,2459.5 4369.13,2459.5C4365.65,2459.5 4360.62,2459.5 4357.31,2459.5C4355.22,2459.5 4353.92,2458.12 4353.92,2455.89C4353.92,2450.59 4353.92,2440.73 4353.92,2435.12C4353.92,2434.25 4354.42,2433.18 4355.23,2432.32C4356.03,2431.46 4357.03,2430.93 4357.85,2430.93C4361.33,2430.93 4366.36,2430.93 4369.67,2430.93Z" style="fill:rgb(135,191,255);"/>
                </g>
                <g transform="matrix(-0.676911,0.431,-6.44411e-18,1.57538,3334.42,-5461.36)">
                    <path d="M4369.05,2430.93C4371.53,2430.93 4373.06,2431.79 4373.06,2433.17C4373.06,2438.39 4373.06,2451.35 4373.06,2456.91C4373.06,2457.44 4372.47,2458.1 4371.52,2458.64C4370.56,2459.17 4369.38,2459.5 4368.41,2459.5C4365.21,2459.5 4360.99,2459.5 4357.93,2459.5C4355.45,2459.5 4353.92,2458.64 4353.92,2457.26C4353.92,2452.04 4353.92,2439.08 4353.92,2433.52C4353.92,2432.99 4354.51,2432.33 4355.46,2431.79C4356.42,2431.26 4357.6,2430.93 4358.57,2430.93C4361.77,2430.93 4365.99,2430.93 4369.05,2430.93Z" style="fill:rgb(135,191,255);"/>
                </g>
                <g transform="matrix(-0.498587,0.317458,-3.7088e-17,1.91649,2613.78,-5745.23)">
                    <path d="M4367.62,2430.93C4370.98,2430.93 4373.06,2431.64 4373.06,2432.77C4373.06,2437.84 4373.06,2451.97 4373.06,2457.37C4373.06,2457.81 4372.26,2458.35 4370.96,2458.79C4369.66,2459.23 4368.06,2459.5 4366.75,2459.5C4364.36,2459.5 4361.66,2459.5 4359.36,2459.5C4356,2459.5 4353.92,2458.8 4353.92,2457.66C4353.92,2452.6 4353.92,2438.46 4353.92,2433.06C4353.92,2432.62 4354.72,2432.08 4356.02,2431.64C4357.31,2431.2 4358.92,2430.93 4360.23,2430.93C4362.62,2430.93 4365.31,2430.93 4367.62,2430.93Z" style="fill:rgb(0,81,106);"/>
                </g>
                <g transform="matrix(-0.483177,0.307647,8.38022e-18,0.821042,2467.05,-3158.97)">
                    <path d="M4367.44,2430.93C4370.91,2430.93 4373.06,2432.57 4373.06,2435.22C4373.06,2440.39 4373.06,2449.07 4373.06,2454.53C4373.06,2455.56 4372.24,2456.82 4370.9,2457.85C4369.56,2458.87 4367.9,2459.5 4366.55,2459.5C4364.27,2459.5 4361.73,2459.5 4359.53,2459.5C4356.07,2459.5 4353.92,2457.86 4353.92,2455.21C4353.92,2450.04 4353.92,2441.36 4353.92,2435.91C4353.92,2434.87 4354.74,2433.61 4356.08,2432.59C4357.42,2431.56 4359.08,2430.93 4360.43,2430.93C4362.71,2430.93 4365.24,2430.93 4367.44,2430.93Z" style="fill:rgb(0,81,106);"/>
                </g>
                <g transform="matrix(-0.624975,0.397932,2.50356e-18,1.25688,2850.88,-4628.97)">
                    <path d="M4368.72,2430.93C4371.4,2430.93 4373.06,2432 4373.06,2433.74C4373.06,2439.06 4373.06,2450.6 4373.06,2456.25C4373.06,2456.92 4372.42,2457.75 4371.39,2458.42C4370.35,2459.09 4369.07,2459.5 4368.03,2459.5C4364.99,2459.5 4361.16,2459.5 4358.26,2459.5C4355.58,2459.5 4353.92,2458.43 4353.92,2456.7C4353.92,2451.37 4353.92,2439.83 4353.92,2434.18C4353.92,2433.51 4354.56,2432.68 4355.59,2432.01C4356.63,2431.34 4357.91,2430.93 4358.95,2430.93C4361.99,2430.93 4365.82,2430.93 4368.72,2430.93Z" style="fill:rgb(0,81,106);"/>
                </g>
                <g transform="matrix(-0.810849,0.516281,2.95092e-17,2.24466,3636.32,-7451.97)">
                    <path d="M4369.71,2430.93C4371.78,2430.93 4373.06,2431.53 4373.06,2432.5C4373.06,2437.41 4373.06,2452.45 4373.06,2457.68C4373.06,2458.06 4372.57,2458.52 4371.77,2458.89C4370.97,2459.27 4369.99,2459.5 4369.18,2459.5L4357.27,2459.5C4355.2,2459.5 4353.92,2458.9 4353.92,2457.93C4353.92,2453.02 4353.92,2437.99 4353.92,2432.75C4353.92,2432.37 4354.41,2431.91 4355.21,2431.54C4356.01,2431.16 4356.99,2430.93 4357.8,2430.93L4369.71,2430.93Z" style="fill:rgb(0,81,106);"/>
                </g>
                <g transform="matrix(-1.23836,0.788483,2.12126e-16,1.47527,5490.19,-6792.52)">
                    <path d="M4370.87,2430.93C4372.22,2430.93 4373.06,2431.85 4373.06,2433.32C4373.06,2438.58 4373.06,2451.14 4373.06,2456.73C4373.06,2457.3 4372.74,2458.01 4372.22,2458.58C4371.69,2459.15 4371.05,2459.5 4370.52,2459.5C4366.73,2459.5 4359.68,2459.5 4356.11,2459.5C4354.76,2459.5 4353.92,2458.59 4353.92,2457.11C4353.92,2451.85 4353.92,2439.29 4353.92,2433.7C4353.92,2433.12 4354.24,2432.42 4354.76,2431.85C4355.28,2431.28 4355.93,2430.93 4356.46,2430.93C4360.24,2430.93 4367.3,2430.93 4370.87,2430.93Z" style="fill:rgb(135,191,255);"/>
                </g>
                <g transform="matrix(-1.47672,0.940249,2.04372e-16,1.47527,6526.49,-7335.1)">
                    <path d="M4371.22,2430.93C4372.36,2430.93 4373.06,2431.85 4373.06,2433.32C4373.06,2438.58 4373.06,2451.14 4373.06,2456.73C4373.06,2457.3 4372.79,2458.01 4372.35,2458.58C4371.91,2459.15 4371.37,2459.5 4370.93,2459.5C4367.15,2459.5 4359.32,2459.5 4355.76,2459.5C4354.62,2459.5 4353.92,2458.59 4353.92,2457.11C4353.92,2451.85 4353.92,2439.29 4353.92,2433.7C4353.92,2433.12 4354.19,2432.42 4354.63,2431.85C4355.07,2431.28 4355.61,2430.93 4356.05,2430.93C4359.83,2430.93 4367.66,2430.93 4371.22,2430.93Z" style="fill:rgb(135,191,255);"/>
                </g>
                <g transform="matrix(-0.376822,0.239929,-7.75703e-17,2.60665,2014.25,-7046.41)">
                    <path d="M4365.86,2430.93C4370.31,2430.93 4373.06,2431.45 4373.06,2432.28C4373.06,2437.02 4373.06,2452.87 4373.06,2457.93C4373.06,2458.26 4372,2458.66 4370.28,2458.98C4368.57,2459.3 4366.44,2459.5 4364.71,2459.5L4361.12,2459.5C4356.67,2459.5 4353.92,2458.98 4353.92,2458.15C4353.92,2453.41 4353.92,2437.56 4353.92,2432.5C4353.92,2432.17 4354.97,2431.78 4356.69,2431.45C4358.41,2431.13 4360.53,2430.93 4362.27,2430.93C4363.46,2430.93 4364.69,2430.93 4365.86,2430.93Z" style="fill:rgb(0,81,106);"/>
                </g>
                <g transform="matrix(0.782947,0,0,0.885423,-3072.76,-1617.22)">
                    <path d="M4061.1,2282.49C4063.64,2285.29 4063.44,2289.63 4060.64,2292.18C4057.85,2294.73 4053.5,2294.53 4050.95,2291.73C4045.04,2285.24 4041.43,2276.6 4041.43,2267.13C4041.43,2246.97 4057.8,2230.59 4077.97,2230.59C4079.14,2230.59 4082.12,2230.82 4082.57,2230.82C4090.21,2230.82 4096.41,2224.62 4096.41,2216.98C4096.41,2213.2 4099.49,2210.12 4103.27,2210.12C4107.06,2210.12 4110.13,2213.2 4110.13,2216.98C4110.13,2232.19 4097.78,2244.54 4082.57,2244.54C4082.12,2244.54 4079.14,2244.31 4077.97,2244.31C4065.38,2244.31 4055.15,2254.54 4055.15,2267.13C4055.15,2273.05 4057.4,2278.44 4061.1,2282.49Z" style="fill:rgb(255,193,40);"/>
                </g>
                <g transform="matrix(0.895105,0,0,1.01226,-3534.11,-1893.95)">
                    <path d="M4107.24,2246.56C4110.16,2248.11 4111.28,2251.74 4109.73,2254.67C4108.18,2257.6 4104.54,2258.71 4101.62,2257.16C4088.11,2250 4078.9,2235.79 4078.9,2219.45C4078.9,2195.91 4098.01,2176.79 4121.56,2176.79C4124.87,2176.79 4127.56,2179.48 4127.56,2182.79C4127.56,2186.1 4124.87,2188.79 4121.56,2188.79C4104.64,2188.79 4090.9,2202.53 4090.9,2219.45C4090.9,2231.2 4097.52,2241.41 4107.24,2246.56Z" style="fill:rgb(0,81,106);"/>
                </g>
                <g transform="matrix(0.782947,0,0,0.885423,-3072.76,-1617.22)">
                    <path d="M4096.98,2193.49C4104.87,2198.34 4110.13,2207.05 4110.13,2216.98C4110.13,2220.77 4107.06,2223.84 4103.27,2223.84C4099.49,2223.84 4096.41,2220.77 4096.41,2216.98C4096.41,2211.98 4093.75,2207.59 4089.76,2205.16C4081.14,2200.48 4075.29,2191.35 4075.29,2180.86C4075.29,2165.71 4088.27,2153.38 4102.63,2153.25C4104.44,2153.14 4113.72,2152.89 4123.64,2158.54C4126.94,2160.41 4128.09,2164.6 4126.22,2167.89C4124.35,2171.18 4120.16,2172.33 4116.86,2170.46C4109.9,2166.51 4103.51,2166.94 4103.51,2166.94C4103.31,2166.95 4103.11,2166.96 4102.91,2166.96C4095.61,2166.96 4089.01,2173.19 4089.01,2180.86C4089.01,2186.2 4092.02,2190.83 4096.43,2193.16C4096.62,2193.26 4096.8,2193.37 4096.98,2193.49Z" style="fill:rgb(255,193,40);"/>
                </g>
                <g transform="matrix(0.895105,0,0,1.01226,-3532.93,-1893.41)">
                    <path d="M4239.65,2554.68C4236.51,2556.45 4232.68,2556.45 4229.53,2554.68C4198.09,2536.98 4030.72,2442.74 4030.72,2442.74C4027.8,2441.1 4025.85,2438.15 4025.47,2434.82C4024.07,2420.01 4020.7,2375.54 4024.68,2319.82C4025.48,2308.87 4030.23,2298.58 4038.05,2290.87C4053.27,2275.85 4082.3,2250.48 4121.08,2231.26C4121.08,2231.26 4127.54,2167.41 4146.93,2121.22C4150.09,2113.68 4155.03,2107.01 4161.32,2101.78C4172.01,2092.88 4191.69,2079.41 4220.4,2070.88C4229.62,2068.11 4239.46,2068.11 4248.69,2070.88C4277.4,2079.41 4297.12,2092.88 4307.84,2101.76C4314.16,2107 4319.12,2113.69 4322.3,2121.26C4341.65,2167.46 4348.11,2231.26 4348.11,2231.26C4386.89,2250.48 4415.91,2275.85 4431.15,2290.86C4438.97,2298.57 4443.72,2308.86 4444.52,2319.82C4448.49,2375.54 4445.12,2420.01 4443.71,2434.82C4443.33,2438.15 4441.38,2441.1 4438.46,2442.74C4421.71,2452.17 4363.13,2485.16 4313.03,2513.36L4309.14,2515.56C4309.09,2515.58 4309.05,2515.61 4309,2515.64C4308.84,2515.73 4308.68,2515.82 4308.51,2515.91C4304.43,2518.14 4299.11,2519.41 4293.54,2519.38C4289.07,2519.35 4284.45,2518.49 4280.17,2516.62C4279.45,2516.3 4278.73,2515.95 4278.03,2515.58C4273.27,2519.51 4268.27,2522.31 4268.27,2522.31C4268.77,2534.85 4252.87,2546.7 4242.74,2552.94C4241.6,2553.58 4240.57,2554.16 4239.65,2554.68Z" style="fill:rgb(203,73,11);"/>
                </g>
                <g transform="matrix(0.895105,0,0,1.01226,-3532.49,-2748.4)">
                    <path d="M4120.52,3075.93C4120.49,3083.29 4125.44,3087.42 4126.3,3088.13C4127.05,3088.76 4127.72,3089.21 4127.73,3089.21C4128.48,3090.18 4128.5,3090.26 4128.52,3090.37C4128.69,3091.09 4128.68,3091.13 4128.28,3091.76C4127.3,3093.3 4125.65,3092.28 4125.46,3092.16C4119.27,3088.35 4116.75,3082.89 4115.95,3078.24C4117.46,3077.46 4118.98,3076.69 4120.52,3075.93Z"/>
                </g>
                <g transform="matrix(0.895105,0,0,1.01226,-3532.93,-1893.41)">
                    <path d="M4296.66,2455.51C4296.7,2455.49 4296.74,2455.46 4296.78,2455.44L4403.21,2395.52C4405.03,2392.56 4405.64,2391.31 4405.22,2385.66C4410.57,2388.95 4413.16,2394.16 4413.16,2399.62C4413.16,2399.68 4413.16,2399.75 4413.16,2399.82L4413.41,2452.93C4413.44,2458.42 4410.49,2463.49 4405.71,2466.19L4309.14,2520.56C4309.09,2520.58 4309.05,2520.61 4309,2520.64C4308.84,2520.73 4308.68,2520.82 4308.51,2520.91C4304.43,2523.14 4299.11,2524.41 4293.54,2524.38L4293.24,2461.69C4290.69,2456.75 4286.43,2453.6 4288.18,2454.6C4290.81,2456.1 4292.91,2457.59 4296.66,2455.51Z" style="fill:rgb(255,193,40);"/>
                </g>
                <g transform="matrix(-7.99726,5.09199,2.43593e-17,9.67634,35197.7,-45331.4)">
                    <path d="M4353.92,2436.76L4353.92,2439.46C4353.92,2441.07 4354.84,2442.06 4356.34,2442.06L4373.06,2442.06C4373.06,2438.15 4373.06,2434.58 4373.06,2432.65C4373.06,2431.63 4372.64,2430.87 4371.89,2430.52C4370.29,2429.79 4367.13,2428.7 4362.73,2428.89C4362.23,2428.91 4361.76,2428.94 4361.31,2428.98L4353.92,2436.76Z" style="fill:white;"/>
                </g>
                <g transform="matrix(0.895105,0,0,1.01226,-3532.93,-1893.41)">
                    <path d="M4293.28,2469.59L4293.54,2524.38C4288.16,2524.35 4282.55,2523.11 4277.6,2520.34L4200.85,2477.13L4199.87,2414.47C4199.87,2414.4 4199.87,2414.33 4199.87,2414.27C4199.87,2405.81 4202.35,2402.66 4209.85,2399.99C4206.05,2406.75 4211.7,2407.96 4214.99,2411.35L4289,2452.93C4291.68,2452.04 4295.8,2451.58 4302.09,2452.45C4296.22,2455.92 4293.29,2459.84 4293.29,2469.11C4293.29,2469.28 4293.29,2469.44 4293.28,2469.59Z"/>
                </g>
                <g transform="matrix(0.895105,0,0,1.01226,-3526.52,-1861.74)">
                    <path d="M4111.67,2115.97C4128.02,2125.14 4177.66,2154.03 4177.66,2154.03L4176.43,2168.11L4124.5,2138.76C4122.49,2147.95 4120.91,2155.32 4120.91,2155.32L4105.98,2147.01C4105.1,2146.52 4104.45,2145.69 4104.19,2144.72C4103.38,2141.14 4101.71,2131.45 4103.63,2118.18C4103.64,2118.14 4103.64,2118.1 4103.65,2118.06C4103.68,2117.85 4103.74,2117.64 4103.81,2117.43C4104.93,2113.57 4107.78,2110.71 4111.09,2109.12C4109.73,2111.26 4109.47,2112.28 4111.67,2115.97Z"/>
                </g>
                <g transform="matrix(0.895105,0,0,1.01226,-3532.93,-1893.41)">
                    <path d="M4188.45,2151.57C4191.48,2153.3 4195.22,2153.25 4198.2,2151.43C4201.19,2149.62 4202.96,2146.33 4202.83,2142.84C4201.22,2095.14 4154.93,2038.7 4108.51,2005.65C4107.35,2004.85 4105.77,2005.05 4104.83,2006.11C4103.9,2007.17 4103.9,2008.76 4104.85,2009.81C4118.22,2024.9 4138.69,2049.02 4156.66,2074.52C4157.44,2075.66 4157.27,2077.2 4156.26,2078.14C4155.25,2079.08 4153.7,2079.15 4152.62,2078.29C4143.46,2070.93 4131.16,2061.46 4118.79,2053.23C4117.61,2052.5 4116.08,2052.75 4115.19,2053.81C4114.3,2054.87 4114.32,2056.42 4115.24,2057.46C4126.34,2069.13 4140.65,2085.18 4148.35,2097.79C4148.88,2098.82 4148.7,2100.07 4147.92,2100.93C4147.14,2101.78 4145.91,2102.06 4144.83,2101.63C4139.76,2099.59 4132.65,2096.89 4125.62,2094.85C4124.37,2094.54 4123.07,2095.11 4122.48,2096.25C4121.87,2097.38 4122.12,2098.78 4123.08,2099.63C4136.66,2111.83 4165.11,2136.57 4188.45,2151.57Z" style="fill:rgb(255,193,40);"/>
                </g>
                <g transform="matrix(-0.732308,0.466272,-1.20387e-18,0.80001,3523.23,-3547.13)">
                    <path d="M4369.35,2430.93C4371.64,2430.93 4373.06,2432.62 4373.06,2435.34C4373.06,2440.48 4373.06,2448.97 4373.06,2454.39C4373.06,2455.45 4372.52,2456.75 4371.63,2457.8C4370.75,2458.85 4369.66,2459.5 4368.76,2459.5C4365.41,2459.5 4360.81,2459.5 4357.62,2459.5C4355.34,2459.5 4353.92,2457.81 4353.92,2455.1C4353.92,2449.95 4353.92,2441.46 4353.92,2436.04C4353.92,2434.98 4354.46,2433.68 4355.35,2432.63C4356.23,2431.58 4357.32,2430.93 4358.21,2430.93C4361.56,2430.93 4366.16,2430.93 4369.35,2430.93Z" style="fill:rgb(0,81,106);"/>
                </g>
                <g transform="matrix(-0.538125,0.342633,-8.84643e-19,0.626158,2617.74,-2578.41)">
                    <path d="M4368.02,2430.93C4371.13,2430.93 4373.06,2433.08 4373.06,2436.56C4373.06,2441.28 4373.06,2448.02 4373.06,2452.98C4373.06,2454.33 4372.32,2455.99 4371.12,2457.33C4369.91,2458.67 4368.43,2459.5 4367.21,2459.5C4364.58,2459.5 4361.49,2459.5 4358.96,2459.5C4355.85,2459.5 4353.92,2457.35 4353.92,2453.87C4353.92,2449.15 4353.92,2442.41 4353.92,2437.45C4353.92,2436.1 4354.66,2434.44 4355.86,2433.1C4357.06,2431.76 4358.55,2430.93 4359.76,2430.93C4362.4,2430.93 4365.48,2430.93 4368.02,2430.93Z" style="fill:rgb(135,191,255);"/>
                </g>
                <g transform="matrix(0.337621,0,0,0.38181,-1110.43,-319.114)">
                    <path d="M4453.15,2444.48L4453.09,2382.56C4453.08,2376.07 4456.58,2370.08 4462.23,2366.89L4479.6,2357.11C4482.16,2355.67 4485.31,2355.69 4487.85,2357.18C4490.4,2358.66 4491.97,2361.39 4491.97,2364.34L4492.03,2422.59L4453.15,2444.48ZM4390.82,2479.57L4390.75,2417.65C4390.74,2411.16 4394.24,2405.17 4399.9,2401.99L4417.26,2392.21C4419.83,2390.76 4422.97,2390.79 4425.52,2392.27C4428.07,2393.76 4429.63,2396.48 4429.64,2399.43L4429.7,2457.68L4390.82,2479.57ZM4328.5,2514.66L4328.43,2452.74C4328.42,2446.25 4331.92,2440.26 4337.58,2437.08L4354.94,2427.3C4357.51,2425.85 4360.65,2425.88 4363.2,2427.36C4365.74,2428.85 4367.31,2431.57 4367.31,2434.52L4367.38,2492.77L4328.5,2514.66Z"/>
                </g>
                <g transform="matrix(0.681916,-0.434187,0,0.771168,-2634.44,570.958)">
                    <circle cx="4347.14" cy="2488.5" r="8.13"/>
                </g>
                <g transform="matrix(0.681916,-0.434187,0,0.771168,-2634.44,593.324)">
                    <circle cx="4347.14" cy="2488.5" r="8.13"/>
                </g>
                <g transform="matrix(0.895105,0,0,1.01226,-3532.93,-1893.41)">
                    <path d="M4243.75,2250.76C4229.01,2242.52 4233.21,2204.58 4269.22,2182.32C4277.73,2176.42 4291.78,2179.91 4300.74,2186.05C4313.44,2194.76 4386.44,2239.93 4380.22,2285.11C4380.22,2285.11 4375.64,2286.75 4369.42,2286.42C4369.42,2286.42 4363.16,2296.87 4340.61,2292.64C4324.89,2289.7 4288.28,2276.03 4243.75,2250.76Z" style="fill:rgb(255,193,40);"/>
                </g>
                <g transform="matrix(0.941589,0,0,1.06483,-3732.99,-2012.1)">
                    <path d="M4239.26,2231.63C4239.4,2229.9 4239.67,2228.1 4240.06,2226.26C4265.97,2247.13 4338.81,2280.84 4366.53,2285.03C4366.41,2285.02 4366.3,2285.02 4366.18,2285.01C4366.18,2285.01 4365.31,2286.46 4363.05,2288.02C4334.05,2282.54 4267.19,2252.47 4239.26,2231.63Z"/>
                </g>
                <g transform="matrix(0.895105,0,0,1.01226,-3526.52,-1895.6)">
                    <path d="M4197.72,2180.53L4181.52,2189.65C4181.52,2189.65 4138.01,2165.09 4116.43,2152.91C4114.02,2151.55 4112.53,2149 4112.53,2146.23C4112.53,2143.46 4114.03,2140.91 4116.44,2139.55C4126.1,2134.11 4138.16,2127.32 4138.16,2127.32C4135.82,2133.99 4132.64,2142.76 4132.64,2142.76L4197.72,2180.53Z" style="fill:rgb(0,81,106);"/>
                </g>
                <g transform="matrix(0.895105,0.569928,-1.19366,0.760023,-536.754,-3756.71)">
                    <path d="M4281.43,2417.75C4283.17,2417.75 4285.35,2418.58 4287.13,2419.91C4288.9,2421.24 4290,2422.87 4290,2424.18C4290,2441.5 4290,2488.79 4290,2503.34C4290,2506.02 4287.82,2507.66 4284.24,2507.66C4268.47,2507.66 4224.54,2507.66 4205.86,2507.66C4204.12,2507.66 4201.94,2506.84 4200.17,2505.5C4198.39,2504.17 4197.29,2502.54 4197.29,2501.23C4197.29,2483.91 4197.29,2436.62 4197.29,2422.07C4197.29,2419.39 4199.48,2417.75 4203.05,2417.75C4218.82,2417.75 4262.76,2417.75 4281.43,2417.75Z"/>
                </g>
                <g transform="matrix(0.895105,0.569928,-1.19366,0.760023,-536.754,-3756.71)">
                    <path d="M4277.46,2424.18C4278.27,2424.18 4279.28,2424.56 4280.1,2425.18C4280.92,2425.8 4281.43,2426.55 4281.43,2427.15C4281.43,2440.26 4281.43,2492.61 4281.43,2500.29C4281.43,2500.87 4280.95,2501.23 4280.17,2501.23C4271.8,2501.23 4224.01,2501.23 4209.83,2501.23C4209.02,2501.23 4208.02,2500.85 4207.2,2500.23C4206.38,2499.62 4205.87,2498.86 4205.87,2498.26C4205.87,2485.15 4205.87,2432.8 4205.87,2425.12C4205.87,2424.54 4206.34,2424.18 4207.12,2424.18C4215.49,2424.18 4263.29,2424.18 4277.46,2424.18Z" style="fill:rgb(135,191,255);"/>
                </g>
                <g transform="matrix(0.653667,0.416201,-0.595344,0.379066,-996.3,-2159.38)">
                    <path d="M4276.22,2424.18C4277.27,2424.18 4278.6,2424.91 4279.68,2426.1C4280.76,2427.29 4281.43,2428.74 4281.43,2429.9C4281.43,2445.8 4281.43,2489.92 4281.43,2499.41C4281.43,2500.54 4280.8,2501.23 4279.77,2501.23C4270.66,2501.23 4226.38,2501.23 4211.08,2501.23C4210.02,2501.23 4208.69,2500.49 4207.61,2499.31C4206.53,2498.12 4205.87,2496.67 4205.87,2495.51C4205.87,2479.62 4205.87,2435.49 4205.87,2426C4205.87,2424.87 4206.49,2424.18 4207.52,2424.18C4216.63,2424.18 4260.92,2424.18 4276.22,2424.18Z" style="fill:white;"/>
                </g>
                <g transform="matrix(0.0589403,0.0375283,-0.312141,0.198745,828.992,-107.673)">
                    <path d="M4287.77,2444.63C4283.73,2445.03 4281.52,2445.8 4281.52,2446.83C4281.43,2454.61 4281.43,2488.6 4281.43,2498.51C4281.43,2500.2 4275.97,2501.23 4267.03,2501.23C4254.84,2501.23 4237.28,2501.23 4224.11,2501.23C4220.4,2501.23 4215.76,2500.79 4211.98,2500.07C4208.2,2499.36 4205.87,2498.49 4205.87,2497.78C4205.87,2488.01 4205.87,2460.12 4205.87,2449.59C4205.86,2447.6 4197.61,2445.05 4185.72,2443.35C4165.56,2440.63 4152.73,2436.42 4152.73,2431.7C4152.73,2423.37 4192.67,2416.61 4241.87,2416.61C4291.06,2416.61 4331,2423.37 4331,2431.7C4331,2437.18 4313.66,2441.99 4287.77,2444.63Z"/>
                </g>
                <g transform="matrix(-0.512983,0.326625,2.6104e-17,0.913509,2569.87,-3101.32)">
                    <path d="M4367.77,2430.93C4371.04,2430.93 4373.06,2432.41 4373.06,2434.79C4373.06,2440.05 4373.06,2449.46 4373.06,2455.03C4373.06,2455.96 4372.28,2457.09 4371.02,2458.01C4369.76,2458.93 4368.2,2459.5 4366.93,2459.5C4364.44,2459.5 4361.6,2459.5 4359.21,2459.5C4355.94,2459.5 4353.92,2458.02 4353.92,2455.64C4353.92,2450.38 4353.92,2440.97 4353.92,2435.4C4353.92,2434.47 4354.69,2433.34 4355.96,2432.42C4357.22,2431.5 4358.78,2430.93 4360.05,2430.93C4362.54,2430.93 4365.38,2430.93 4367.77,2430.93Z" style="fill:rgb(135,191,255);"/>
                </g>
                <g transform="matrix(0.735381,0.468229,-0.634359,0.403907,-1344.89,-2513.56)">
                    <path d="M4374.85,2446.88C4374.85,2450.96 4371.52,2452.26 4367.41,2449.79C4363.3,2447.32 4359.96,2442.01 4359.96,2437.93L4359.96,2422.74C4359.96,2409.67 4370.32,2398.75 4383.39,2398.75C4391.41,2398.75 4398.8,2402.76 4404.06,2408.02C4410.11,2414.07 4414.54,2422.46 4414.54,2431.69L4414.54,2446.88C4414.54,2450.96 4411.2,2452.26 4407.09,2449.79C4402.99,2447.32 4399.65,2442.01 4399.65,2437.93L4399.65,2422.74C4399.65,2421.16 4399.6,2419.81 4398.72,2418.62C4398.08,2417.74 4397.16,2417.34 4396.13,2416.92C4394.57,2416.29 4392.89,2416 4391.11,2416C4382.28,2416 4374.85,2422.86 4374.85,2431.69L4374.85,2446.88Z" style="fill:white;"/>
                </g>
                <g transform="matrix(0.895105,0,0,1.01226,-3532.93,-1893.41)">
                    <path d="M4060.6,2390.06C4110.53,2342.65 4158.45,2335.59 4173.58,2336.1C4188.71,2336.6 4237.09,2341.18 4285.02,2389.11C4296.95,2401.04 4275.89,2408.14 4260.76,2398.9C4245.63,2389.65 4216.48,2379.76 4216.48,2379.76L4223.34,2392.39C4223.34,2392.39 4217.41,2395.73 4211.6,2399C4204.76,2402.85 4200.54,2410.11 4200.58,2417.97C4200.61,2424.09 4200.64,2430.13 4200.64,2430.13C4200.64,2430.13 4181.53,2438.44 4169.46,2445.6C4169.46,2445.6 4153.23,2440.32 4143.8,2430.14C4143.8,2430.14 4128.71,2435.42 4118.9,2465.22" style="fill:rgb(203,73,11);"/>
                    <g transform="matrix(1,0,0,1,0,-844.47)">
                        <path d="M4199.1,3199.68C4199.33,3199.23 4200.79,3196.45 4202.15,3195.48C4203.32,3194.64 4205.75,3194.08 4206.68,3193.88C4206.79,3193.86 4206.89,3193.84 4206.99,3193.82C4207.02,3193.81 4207.04,3193.81 4207.05,3193.81C4207.05,3193.81 4207.05,3193.81 4207.06,3193.81C4209.04,3193.52 4209.68,3195.02 4208.47,3196.7C4207.44,3198.39 4206.55,3199.57 4205.98,3200.09C4204.89,3201.07 4202.54,3201.67 4201.24,3202C4200.09,3202.51 4198.24,3201.2 4199.1,3199.68Z"/>
                    </g>
                    <g transform="matrix(1.05176,-0.117952,0.117952,1.05176,-612.341,-499.399)">
                        <path d="M4199.1,3199.68C4199.33,3199.23 4200.79,3196.45 4202.15,3195.48C4203.32,3194.64 4205.75,3194.08 4206.68,3193.88C4206.79,3193.86 4206.89,3193.84 4206.99,3193.82C4207.02,3193.81 4207.04,3193.81 4207.05,3193.81C4207.05,3193.81 4207.05,3193.81 4207.06,3193.81C4209.04,3193.52 4209.68,3195.02 4208.47,3196.7C4207.44,3198.39 4206.55,3199.57 4205.98,3200.09C4204.89,3201.07 4202.54,3201.67 4201.24,3202C4200.09,3202.51 4198.24,3201.2 4199.1,3199.68Z"/>
                    </g>
                    <g transform="matrix(1.02438,-0.265999,0.265999,1.02438,-986.661,228.554)">
                        <path d="M4199.1,3199.68C4199.33,3199.23 4200.79,3196.45 4202.15,3195.48C4203.32,3194.64 4205.75,3194.08 4206.68,3193.88C4206.79,3193.86 4206.89,3193.84 4206.99,3193.82C4207.02,3193.81 4207.04,3193.81 4207.05,3193.81C4207.05,3193.81 4207.05,3193.81 4207.06,3193.81C4209.04,3193.52 4209.68,3195.02 4208.47,3196.7C4207.44,3198.39 4206.55,3199.57 4205.98,3200.09C4204.89,3201.07 4202.54,3201.67 4201.24,3202C4200.09,3202.51 4198.24,3201.2 4199.1,3199.68Z"/>
                    </g>
                    <g transform="matrix(1,0,0,1,-1.33648,-1.83765)">
                        <path d="M4199.9,2341.24C4189.2,2338.94 4178.32,2338.25 4173.51,2338.09C4158.57,2337.6 4111.3,2344.68 4061.98,2391.51C4061.18,2392.27 4059.91,2392.24 4059.15,2391.44C4058.39,2390.64 4058.43,2389.37 4059.23,2388.61C4109.77,2340.62 4158.33,2333.59 4173.64,2334.1C4178.5,2334.26 4189.38,2334.95 4200.18,2337.21C4200.02,2338.55 4199.92,2339.89 4199.9,2341.24Z"/>
                    </g>
                    <path d="M4139.02,2430.51C4130.22,2428.84 4124.53,2426.03 4120.56,2422.18C4115.92,2417.68 4113.53,2411.72 4111.4,2404.22C4111.1,2403.16 4111.72,2402.05 4112.78,2401.75C4113.85,2401.45 4114.95,2402.07 4115.25,2403.13C4117.16,2409.86 4119.18,2415.27 4123.34,2419.3C4129.72,2425.48 4140.92,2428.34 4163.4,2428.34C4164.5,2428.34 4165.4,2429.24 4165.4,2430.34C4165.4,2431.44 4164.5,2432.34 4163.4,2432.34C4157.75,2432.34 4152.78,2432.14 4148.38,2431.76C4157.55,2439.65 4170.08,2443.7 4170.08,2443.7C4171.12,2444.04 4171.7,2445.17 4171.36,2446.22C4171.02,2447.27 4169.89,2447.85 4168.84,2447.51C4168.84,2447.51 4153.2,2442.39 4143.35,2432.55C4139.82,2434.43 4128.64,2442.05 4120.8,2465.85C4120.46,2466.89 4119.33,2467.47 4118.28,2467.12C4117.23,2466.78 4116.66,2465.64 4117,2464.6C4123.97,2443.43 4133.61,2434.22 4139.02,2430.51ZM4190.76,2434.87C4191.11,2435.92 4190.55,2437.05 4189.51,2437.41C4188.46,2437.77 4187.33,2437.21 4186.97,2436.16C4186.97,2436.16 4182.05,2421.75 4171.43,2410.59C4170.67,2409.8 4170.7,2408.53 4171.5,2407.77C4172.3,2407.01 4173.56,2407.04 4174.32,2407.84C4185.56,2419.63 4190.76,2434.87 4190.76,2434.87ZM4205.3,2405.49C4205.91,2406.41 4205.66,2407.65 4204.74,2408.26C4203.83,2408.88 4202.58,2408.63 4201.97,2407.71C4199.52,2404.03 4196.63,2400.26 4193.29,2396.75C4192.53,2395.95 4192.56,2394.68 4193.36,2393.92C4194.16,2393.16 4195.42,2393.19 4196.19,2393.99C4199.69,2397.68 4202.73,2401.64 4205.3,2405.49Z"/>
                    <g transform="matrix(1,0,0,1,2.13106,-0.358335)">
                        <path d="M4214.35,2380.12L4209.13,2371.63C4208.55,2370.69 4208.85,2369.45 4209.79,2368.88C4210.73,2368.3 4211.96,2368.59 4212.54,2369.53L4220.36,2382.25C4216.77,2380.95 4214.47,2380.16 4214.35,2380.12Z"/>
                    </g>
                </g>
                <g transform="matrix(-0.582243,0.370724,-9.5717e-19,1.65736,2850.88,-5191.05)">
                    <path d="M4368.4,2430.93C4371.28,2430.93 4373.06,2431.74 4373.06,2433.06C4373.06,2438.24 4373.06,2451.52 4373.06,2457.03C4373.06,2457.55 4372.38,2458.17 4371.26,2458.68C4370.15,2459.19 4368.78,2459.5 4367.66,2459.5C4364.8,2459.5 4361.32,2459.5 4358.58,2459.5C4355.7,2459.5 4353.92,2458.68 4353.92,2457.37C4353.92,2452.19 4353.92,2438.91 4353.92,2433.4C4353.92,2432.88 4354.6,2432.26 4355.71,2431.75C4356.83,2431.24 4358.2,2430.93 4359.32,2430.93C4362.18,2430.93 4365.66,2430.93 4368.4,2430.93Z" style="fill:rgb(135,191,255);"/>
                </g>
                <g transform="matrix(-0.339831,0.216376,5.85193e-18,1.11721,1854.21,-3178.65)">
                    <path d="M4365.07,2430.93C4370.01,2430.93 4373.06,2432.14 4373.06,2434.09C4373.06,2439.42 4373.06,2450.19 4373.06,2455.84C4373.06,2456.6 4371.89,2457.53 4369.98,2458.28C4368.08,2459.03 4365.73,2459.5 4363.8,2459.5C4363.17,2459.5 4362.53,2459.5 4361.9,2459.5C4356.97,2459.5 4353.92,2458.29 4353.92,2456.35C4353.92,2451.01 4353.92,2440.24 4353.92,2434.59C4353.92,2433.83 4355.09,2432.9 4356.99,2432.15C4358.9,2431.39 4361.25,2430.93 4363.18,2430.93C4363.81,2430.93 4364.45,2430.93 4365.07,2430.93Z" style="fill:rgb(0,81,106);"/>
                </g>
                <g transform="matrix(-0.709221,0.451573,6.40577e-17,1.82018,3489.24,-5916.63)">
                    <path d="M4369.23,2430.93C4371.6,2430.93 4373.06,2431.67 4373.06,2432.87C4373.06,2437.98 4373.06,2451.81 4373.06,2457.25C4373.06,2457.72 4372.5,2458.29 4371.59,2458.75C4370.67,2459.21 4369.55,2459.5 4368.62,2459.5C4365.33,2459.5 4360.88,2459.5 4357.74,2459.5C4355.38,2459.5 4353.92,2458.76 4353.92,2457.56C4353.92,2452.45 4353.92,2438.62 4353.92,2433.18C4353.92,2432.71 4354.48,2432.14 4355.39,2431.68C4356.31,2431.22 4357.43,2430.93 4358.35,2430.93C4361.65,2430.93 4366.09,2430.93 4369.23,2430.93Z" style="fill:rgb(135,191,255);"/>
                </g>
                <g transform="matrix(-0.501439,0.319275,-1.66981e-17,1.05623,2446.26,-3450.68)">
                    <path d="M4367.65,2430.93C4370.99,2430.93 4373.06,2432.21 4373.06,2434.27C4373.06,2439.59 4373.06,2449.99 4373.06,2455.63C4373.06,2456.43 4372.27,2457.42 4370.98,2458.21C4369.68,2459.01 4368.09,2459.5 4366.79,2459.5C4364.38,2459.5 4361.65,2459.5 4359.33,2459.5C4355.99,2459.5 4353.92,2458.22 4353.92,2456.16C4353.92,2450.84 4353.92,2440.44 4353.92,2434.8C4353.92,2433.99 4354.71,2433.01 4356,2432.22C4357.29,2431.42 4358.89,2430.93 4360.19,2430.93C4362.6,2430.93 4365.33,2430.93 4367.65,2430.93Z" style="fill:rgb(0,81,106);"/>
                </g>
                <g transform="matrix(0.895105,0,0,1.01226,-3532.93,-1893.41)">
                    <path d="M4286.22,2487.79C4286.18,2479.34 4282.65,2471.28 4276.45,2465.54C4259.46,2449.84 4227.13,2434.12 4210.85,2429.84C4206.76,2428.76 4202.48,2428.63 4198.33,2429.46C4188.85,2431.53 4175.48,2437.35 4156.85,2453.07C4156.85,2453.07 4145.41,2469.39 4147.9,2502.48C4148.2,2506.53 4150.51,2510.16 4154.05,2512.15C4169.58,2520.93 4213.85,2545.85 4229.24,2554.51C4232.66,2556.44 4236.85,2556.42 4240.25,2554.45C4249.98,2548.75 4268.82,2535.94 4268.27,2522.31C4268.27,2522.31 4284.55,2513.21 4286.3,2504.76C4286.3,2504.76 4286.26,2496.09 4286.22,2487.79Z" style="fill:rgb(203,73,11);"/>
                    <g transform="matrix(0.998881,-0.0473015,0.0473015,0.998881,-152.257,-643.116)">
                        <path d="M4168.66,3307.23C4167.38,3306.13 4168.37,3304.47 4169.78,3304.54C4169.79,3304.54 4169.79,3304.54 4169.79,3304.54C4169.81,3304.54 4169.82,3304.55 4169.83,3304.55C4169.87,3304.55 4169.91,3304.56 4169.95,3304.56C4177.52,3305.44 4176.95,3305.6 4182.47,3310.19C4183.63,3311.09 4182.79,3313.33 4181.23,3312.86C4173.85,3311.6 4174.96,3312.14 4168.75,3307.32C4168.72,3307.29 4168.69,3307.26 4168.66,3307.23Z"/>
                    </g>
                    <g transform="matrix(0.998895,0.046989,-0.046989,0.998895,184.847,-1025.14)">
                        <path d="M4168.66,3307.23C4167.38,3306.13 4168.37,3304.47 4169.78,3304.54C4169.79,3304.54 4169.79,3304.54 4169.79,3304.54C4169.81,3304.54 4169.82,3304.55 4169.83,3304.55C4169.87,3304.55 4169.91,3304.56 4169.95,3304.56C4177.52,3305.44 4176.95,3305.6 4182.47,3310.19C4183.63,3311.09 4182.79,3313.33 4181.23,3312.86C4173.85,3311.6 4174.96,3312.14 4168.75,3307.32C4168.72,3307.29 4168.69,3307.26 4168.66,3307.23Z"/>
                    </g>
                    <g transform="matrix(0.986105,0.16612,-0.16612,0.986105,657.163,-1465.91)">
                        <path d="M4168.66,3307.23C4167.38,3306.13 4168.37,3304.47 4169.78,3304.54C4169.79,3304.54 4169.79,3304.54 4169.79,3304.54C4169.81,3304.54 4169.82,3304.55 4169.83,3304.55C4169.87,3304.55 4169.91,3304.56 4169.95,3304.56C4177.52,3305.44 4176.95,3305.6 4182.47,3310.19C4183.63,3311.09 4182.79,3313.33 4181.23,3312.86C4173.85,3311.6 4174.96,3312.14 4168.75,3307.32C4168.72,3307.29 4168.69,3307.26 4168.66,3307.23Z"/>
                    </g>
                    <path d="M4146.35,2507.85C4142.75,2478.01 4150.67,2460.04 4153.82,2454.17C4153.84,2454.15 4153.85,2454.12 4153.86,2454.1C4154.74,2452.61 4155.87,2451.28 4157.2,2450.17C4179.96,2431.27 4194.91,2425.26 4204.49,2424.69C4205.59,2424.63 4206.54,2425.47 4206.6,2426.57C4206.67,2427.67 4205.82,2428.62 4204.72,2428.68C4195.59,2429.22 4181.46,2435.21 4159.75,2453.25C4158.79,2454.05 4157.97,2455.01 4157.32,2456.11C4154.19,2461.96 4146.39,2480.12 4150.71,2510.3L4146.35,2507.85Z"/>
                    <g transform="matrix(1,0,0,1,2.20818,1.05608)">
                        <path d="M4265.64,2525.44C4261.26,2526.88 4257.31,2527.42 4256.5,2527.53C4253.43,2527.95 4251.2,2527.96 4250.63,2527.96C4250.03,2527.97 4250,2527.97 4249.57,2527.56C4249.12,2527.14 4249.1,2526.62 4249.1,2526.53C4249.08,2525.94 4249.09,2525.91 4249.5,2525.47C4250.05,2524.88 4250.15,2525.04 4250.96,2524.98C4258.91,2524.39 4265.57,2521.4 4266.99,2520.72C4266.4,2521.07 4266.06,2521.26 4266.06,2521.26C4266.12,2522.66 4265.97,2524.06 4265.64,2525.44Z"/>
                    </g>
                    <path d="M4170.75,2521.57C4170.38,2519.7 4170.44,2518.13 4170.47,2517.75L4170.47,2491.32C4170.47,2490.21 4171.36,2489.32 4172.47,2489.32C4173.57,2489.32 4174.47,2490.21 4174.47,2491.32L4174.47,2517.82C4174.47,2517.87 4174.47,2517.92 4174.46,2517.98C4174.46,2517.98 4174.3,2519.96 4174.99,2522C4175.39,2523.2 4176.09,2524.45 4177.42,2525.19C4177.64,2525.31 4177.82,2525.46 4177.97,2525.64C4175.48,2524.24 4173.06,2522.88 4170.75,2521.57Z"/>
                    <g transform="matrix(1,0,0,1,28.101,15.8494)">
                        <path d="M4170.75,2521.57C4170.38,2519.7 4170.44,2518.13 4170.47,2517.75L4170.47,2491.32C4170.47,2490.21 4171.36,2489.32 4172.47,2489.32C4173.57,2489.32 4174.47,2490.21 4174.47,2491.32L4174.47,2517.82C4174.47,2517.87 4174.47,2517.92 4174.46,2517.98C4174.46,2517.98 4174.3,2519.96 4174.99,2522C4175.39,2523.2 4176.09,2524.45 4177.42,2525.19C4177.64,2525.31 4177.82,2525.46 4177.97,2525.64C4175.48,2524.24 4173.06,2522.88 4170.75,2521.57Z"/>
                    </g>
                    <g transform="matrix(1,0,0,1,58.0707,30.5571)">
                        <path d="M4172.23,2524.49C4170.33,2521.36 4170.43,2518.32 4170.47,2517.74L4170.47,2491.32C4170.47,2490.21 4171.36,2489.32 4172.47,2489.32C4173.57,2489.32 4174.47,2490.21 4174.47,2491.32L4174.47,2517.82C4174.47,2517.88 4174.46,2517.94 4174.46,2518C4174.46,2518 4174.12,2522.41 4178.47,2525.23C4176.38,2525.58 4174.21,2525.34 4172.23,2524.49Z"/>
                    </g>
                </g>
                <g transform="matrix(0.217134,0.138253,-1.8366,1.16939,3880.45,-3187.14)">
                    <path d="M4281.43,2424.18L4281.43,2501.23L4205.87,2501.23L4205.87,2424.18L4281.43,2424.18Z" style="fill:rgb(0,81,106);"/>
                </g>
                <g transform="matrix(0.895105,0,0,1.01226,-5000.62,-2718.17)">
                    <path d="M5925.64,2994.7C5923.38,2994.3 5921.05,2994.73 5919.07,2995.91C5913.24,2999.33 5900.7,3006.84 5900.7,3006.84C5896.23,3009.52 5892.64,3013.45 5890.37,3018.14L5874.03,3051.97L5844.02,3057.41L5835.21,3030.98L5826.12,3035.38L5828.32,3010.95L5986.41,2921.94L5988.55,2940.68L5978.91,2947.84L5970.93,2985L5949.65,3007.02C5945.54,3004.22 5942.31,3002.11 5940.42,3000.82C5938.14,2999.25 5935.53,2997.86 5932.77,2996.76C5929.97,2995.72 5927.51,2995.09 5925.64,2994.7Z" style="fill:rgb(135,191,255);"/>
                </g>
                <g transform="matrix(0.895105,0,0,1.01226,-5000.62,-2718.17)">
                    <path d="M5809.99,3000.63L5828.32,3010.95L5826.12,3035.38L5807.79,3025.07L5809.99,3000.63Z"/>
                </g>
                <g transform="matrix(0.895105,0,0,1.01226,-5000.62,-2718.17)">
                    <path d="M5820.78,3032.38L5825.69,3047.09L5844.02,3057.41L5835.21,3030.98L5826.12,3035.38L5820.78,3032.38Z"/>
                </g>
                <g transform="matrix(-0.376203,0.239535,-1.30461e-17,1.09682,1889.62,-3374.77)">
                    <path d="M4418.33,2419.05C4419.28,2417.74 4418.08,2416.79 4415.47,2416.79C4397.97,2416.79 4333.8,2416.79 4302.28,2416.79C4299.85,2416.79 4296.81,2417.6 4294.78,2418.78C4292.75,2419.97 4292.19,2421.25 4293.4,2421.96C4294.32,2422.5 4294.93,2422.85 4294.95,2422.87C4294.95,2422.87 4294.95,2422.87 4294.95,2422.87C4295.34,2422.87 4382.34,2422.87 4408.32,2422.87C4410.11,2422.87 4412.25,2422.46 4414.16,2421.76C4416.07,2421.05 4417.55,2420.13 4418.2,2419.23C4418.24,2419.17 4418.29,2419.11 4418.33,2419.05ZM4409.57,2431.15C4410.52,2429.84 4409.32,2428.9 4406.71,2428.9C4392.51,2428.9 4348.09,2428.9 4322.99,2428.9C4320.56,2428.9 4317.53,2429.7 4315.49,2430.89C4313.46,2432.07 4312.9,2433.36 4314.12,2434.07C4315.03,2434.6 4315.64,2434.96 4315.66,2434.97C4315.66,2434.97 4315.66,2434.97 4315.66,2434.97C4316,2434.97 4378.05,2434.97 4399.57,2434.97C4401.35,2434.97 4403.49,2434.56 4405.4,2433.86C4407.31,2433.16 4408.79,2432.23 4409.44,2431.34C4409.49,2431.27 4409.53,2431.21 4409.57,2431.15ZM4400.98,2443.03C4401.93,2441.72 4400.72,2440.78 4398.11,2440.78C4387.65,2440.78 4361.22,2440.78 4343.33,2440.78C4340.9,2440.78 4337.86,2441.58 4335.83,2442.77C4333.8,2443.95 4333.24,2445.24 4334.45,2445.95C4335.36,2446.48 4335.97,2446.84 4336,2446.85C4336,2446.85 4336,2446.85 4336,2446.85C4336.26,2446.85 4374.62,2446.85 4390.97,2446.85C4392.75,2446.85 4394.89,2446.45 4396.81,2445.74C4398.72,2445.04 4400.2,2444.11 4400.84,2443.22C4400.89,2443.16 4400.93,2443.1 4400.98,2443.03Z"/>
                </g>
                <g transform="matrix(2.77445,0.101736,-0.937047,3.04985,-13371.6,-9369.22)">
                    <path d="M5939.11,2974.82C5937.04,2973.88 5935.56,2971.28 5935.56,2968.21C5935.56,2964.36 5937.9,2961.24 5940.79,2961.24C5941.43,2961.24 5942.05,2961.39 5942.62,2961.68L5942.62,2961.67L5948.43,2964.32C5948.57,2964.37 5945.8,2977.85 5945.3,2977.62L5939.1,2974.83L5939.11,2974.82Z"/>
                </g>
                <g transform="matrix(1.65643,0.0607395,-0.559444,1.82085,-7872.74,-5471.88)">
                    <path d="M5939.11,2974.82C5937.04,2973.88 5935.56,2971.28 5935.56,2968.21C5935.56,2964.36 5937.9,2961.24 5940.79,2961.24C5941.43,2961.24 5942.05,2961.39 5942.62,2961.68L5942.62,2961.67L5948.43,2964.32C5948.57,2964.37 5945.8,2977.85 5945.3,2977.62L5939.1,2974.83L5939.11,2974.82Z"/>
                </g>
                <g transform="matrix(2.77445,0.101736,-0.937047,3.04985,-13357.2,-9360.08)">
                    <ellipse cx="5940.79" cy="2968.21" rx="5.23" ry="6.973" style="fill:rgb(135,191,255);"/>
                </g>
                <g transform="matrix(1.65643,0.0607395,-0.559444,1.82085,-7864.11,-5466.42)">
                    <ellipse cx="5940.79" cy="2968.21" rx="5.23" ry="6.973" style="fill:white;"/>
                </g>
                <g transform="matrix(1.35693,0.0497574,-0.458293,1.49163,-6356.39,-4425.93)">
                    <ellipse cx="5940.79" cy="2968.21" rx="5.23" ry="6.973" style="fill:rgb(0,81,106);"/>
                </g>
                <g transform="matrix(0.810128,0.0297066,-0.273614,0.890544,-3684.44,-2520.59)">
                    <ellipse cx="5940.79" cy="2968.21" rx="5.23" ry="6.973" style="fill:rgb(203,73,11);"/>
                </g>
            </g>
        </g>
    </g>
</svg>
